<svg width="64" height="64" viewBox="0 0 64 64" fill="none" xmlns="http://www.w3.org/2000/svg">
<path d="M32 61C48.0163 61 61 57.6421 61 53.5C61 49.3579 48.0163 46 32 46C15.9837 46 3 49.3579 3 53.5C3 57.6421 15.9837 61 32 61Z" fill="#FCCD1D"/>
<path d="M32 57C43.0457 57 52 55.433 52 53.5C52 51.567 43.0457 50 32 50C20.9543 50 12 51.567 12 53.5C12 55.433 20.9543 57 32 57Z" fill="#F9A215"/>
<path d="M54 25C54.0021 21.0489 52.9401 17.1702 50.9255 13.7713C48.911 10.3724 46.0183 7.57875 42.5513 5.68381C39.0843 3.78886 35.1709 2.86258 31.2223 3.00224C27.2737 3.14191 23.4356 4.34238 20.1112 6.47755C16.7867 8.61271 14.0986 11.6038 12.3293 15.1365C10.5599 18.6693 9.77458 22.6133 10.0558 26.5544C10.337 30.4954 11.6744 34.288 13.9275 37.5337C16.1805 40.7794 19.2661 43.3585 22.86 45L30.68 52.84C31.045 53.1606 31.5142 53.3375 32 53.3375C32.4858 53.3375 32.955 53.1606 33.32 52.84L41.14 45C44.9744 43.2487 48.2249 40.4327 50.5047 36.887C52.7846 33.3414 53.9978 29.2154 54 25V25Z" fill="#DD051D"/>
<path d="M32 43C41.9411 43 50 34.9411 50 25C50 15.0589 41.9411 7 32 7C22.0589 7 14 15.0589 14 25C14 34.9411 22.0589 43 32 43Z" fill="white"/>
<path d="M20 27.23C20.2 26.35 21.61 25.62 23.81 25.99L24.81 26.15L25.14 24.15L24.14 23.98C21.06 23.47 18.56 24.61 18.06 26.75C17.56 28.89 19.3 32 25.71 34L30.34 35.42L30.92 33.5L26.29 32C21.23 30.52 19.77 28.33 20 27.23Z" fill="#BB7A10"/>
<path d="M31.59 10.68C31.3723 10.5449 31.111 10.4985 30.8601 10.5504C30.6092 10.6023 30.3878 10.7485 30.2416 10.9589C30.0953 11.1693 30.0354 11.4278 30.0742 11.681C30.113 11.9343 30.2475 12.163 30.45 12.32C30.82 12.57 31.05 12.83 31.07 13C31.09 13.17 30.64 13.9 30.26 14.38C29.8561 14.7505 29.5351 15.2021 29.318 15.7054C29.1008 16.2086 28.9925 16.752 29 17.3C29.0847 17.7163 29.2569 18.1099 29.5051 18.4547C29.7534 18.7995 30.072 19.0876 30.44 19.3C30.6072 19.4167 30.8061 19.4795 31.01 19.48C31.2235 19.4816 31.4318 19.4149 31.6046 19.2896C31.7775 19.1644 31.9057 18.987 31.9705 18.7837C32.0353 18.5803 32.0333 18.3615 31.9649 18.1593C31.8964 17.9571 31.765 17.7822 31.59 17.66C31.07 17.3 30.99 17.07 30.98 16.99C30.98 16.68 31.41 16.09 31.8 15.61C32.1969 15.2357 32.5114 14.7826 32.7232 14.2798C32.935 13.777 33.0395 13.2355 33.03 12.69C32.9466 12.2719 32.775 11.8763 32.5267 11.5297C32.2784 11.1832 31.9591 10.8935 31.59 10.68V10.68ZM35.93 17C35.93 16.69 36.36 16.1 36.75 15.62C37.1493 15.2486 37.4667 14.7979 37.682 14.2969C37.8972 13.7958 38.0055 13.2553 38 12.71C37.913 12.2919 37.7378 11.8972 37.486 11.5523C37.2342 11.2074 36.9117 10.9203 36.54 10.71C36.3223 10.5749 36.061 10.5285 35.8101 10.5804C35.5592 10.6323 35.3378 10.7785 35.1916 10.9889C35.0453 11.1993 34.9854 11.4578 35.0242 11.711C35.063 11.9643 35.1975 12.193 35.4 12.35C35.77 12.6 36 12.86 36.02 13.03C36.04 13.2 35.59 13.93 35.21 14.41C34.819 14.7815 34.5095 15.2303 34.3012 15.7278C34.0929 16.2253 33.9903 16.7607 34 17.3C34.0847 17.7163 34.2569 18.1099 34.5051 18.4547C34.7534 18.7995 35.072 19.0876 35.44 19.3C35.6072 19.4167 35.8061 19.4795 36.01 19.48C36.2235 19.4816 36.4318 19.4149 36.6046 19.2896C36.7775 19.1644 36.9057 18.987 36.9705 18.7837C37.0353 18.5803 37.0333 18.3615 36.9649 18.1593C36.8964 17.9571 36.765 17.7822 36.59 17.66C36 17.32 35.94 17.09 35.93 17Z" fill="#E6E7E8"/>
<path d="M23.5 22H44.5V26.5C44.5 29.2848 43.3938 31.9555 41.4246 33.9246C39.4555 35.8938 36.7848 37 34 37C31.2152 37 28.5445 35.8938 26.5754 33.9246C24.6062 31.9555 23.5 29.2848 23.5 26.5V22Z" fill="#BB7A10"/>
</svg>
