<svg width="87" height="145" viewBox="0 0 87 145" fill="none" xmlns="http://www.w3.org/2000/svg">
<path d="M85.9579 42.5031C84.5533 43.9078 82.3331 43.8625 80.8379 42.5031L47.1279 12.4156V141.375C47.1279 143.369 45.4967 145 43.5031 145C41.5095 145 39.8784 143.369 39.8784 141.375V12.4156L6.16833 42.4578C4.62782 43.7719 2.49828 43.9078 1.09369 42.5031C-0.310897 41.0984 -0.401511 38.6516 1.04838 37.3375C1.04838 37.3375 40.4674 1.45 40.9205 1.0875C41.3736 0.725001 42.1892 0 43.5031 0C44.8171 0 45.7233 0.725001 46.0858 1.0875C46.4482 1.45 85.9579 37.3375 85.9579 37.3375C86.6375 38.0172 87 38.9688 87 39.9203C87 40.8719 86.6375 41.7781 85.9579 42.5031V42.5031Z" fill="black"/>
</svg>
